<?xml version="1.0" encoding="UTF-8" standalone="no"?>
<!-- Created with Inkscape (http://www.inkscape.org/) -->

<svg
   xmlns:dc="http://purl.org/dc/elements/1.1/"
   xmlns:cc="http://creativecommons.org/ns#"
   xmlns:rdf="http://www.w3.org/1999/02/22-rdf-syntax-ns#"
   xmlns:svg="http://www.w3.org/2000/svg"
   xmlns="http://www.w3.org/2000/svg"
   xmlns:sodipodi="http://sodipodi.sourceforge.net/DTD/sodipodi-0.dtd"
   xmlns:inkscape="http://www.inkscape.org/namespaces/inkscape"
   width="76mm"
   height="54mm"
   viewBox="0 0 269.29127 191.33845"
   id="svg2"
   version="1.1"
   inkscape:version="0.91 r13725"
   sodipodi:docname="burguer.svg">
  <defs
     id="defs4" />
  <sodipodi:namedview
     id="base"
     pagecolor="#ffffff"
     bordercolor="#666666"
     borderopacity="1.0"
     inkscape:pageopacity="0.0"
     inkscape:pageshadow="2"
     inkscape:zoom="1.28"
     inkscape:cx="155.18134"
     inkscape:cy="90.730871"
     inkscape:document-units="px"
     inkscape:current-layer="layer1"
     showgrid="false"
     showguides="true"
     inkscape:guide-bbox="true"
     inkscape:window-width="1920"
     inkscape:window-height="1027"
     inkscape:window-x="-8"
     inkscape:window-y="-8"
     inkscape:window-maximized="1" />
  <metadata
     id="metadata7">
    <rdf:RDF>
      <cc:Work
         rdf:about="">
        <dc:format>image/svg+xml</dc:format>
        <dc:type
           rdf:resource="http://purl.org/dc/dcmitype/StillImage" />
        <dc:title></dc:title>
      </cc:Work>
    </rdf:RDF>
  </metadata>
  <g
     inkscape:groupmode="layer"
     id="layer5"
     inkscape:label="pan"
     transform="translate(0,-861.02376)">
    <path
       style="fill:#aa8800;fill-rule:evenodd;stroke:#000000;stroke-width:2.78760743;stroke-linecap:butt;stroke-linejoin:miter;stroke-miterlimit:4;stroke-dasharray:none;stroke-opacity:1"
       d="m 20.019111,1003.1626 c 0,0 4.777019,1.4265 6.596833,0.7132 1.819822,-0.7132 6.596841,0.7133 6.596841,0.7133 l 4.549548,-0.7133 c 1.866512,-0.2926 5.914401,2.1399 5.914401,2.1399 l 9.554038,-0.7133 5.004508,0 c 2.729717,0 13.193674,-1.4265 13.193674,-1.4265 l 9.554038,-0.7133 5.914402,0 5.459459,1.4265 c 0,0 7.279264,2.1398 9.554037,2.1398 l 10.46394,0 10.00901,0 c 2.27477,0 4.54955,-1.4265 7.73422,-1.4265 3.18468,0 3.63963,-0.7133 6.36936,-0.7133 l 6.82432,0 7.27928,0 c 1.81981,0 2.27476,-1.4265 5.45944,0 3.18469,1.4266 4.54954,2.1398 8.18918,2.8532 3.63964,0.7133 6.82432,1.4265 10.9189,1.4265 4.09459,0 10.009,0.7133 14.10359,0 4.0946,-0.7132 8.18918,-2.1399 12.28377,-3.5664 4.09457,-1.4265 6.36936,-2.8531 9.09908,-3.5664 2.72974,-0.7133 -3.63963,-1.4266 6.82431,-1.4266 10.46396,0 19.10809,-0.71326 22.29277,-0.71326 l 4.54955,0 4.54954,3.20986 2.72973,3.2097 0.90991,4.993 0.9099,10.6992 -0.9099,5.7064 -2.27478,4.993 c 0,0 -1.36486,2.1398 -3.63963,3.5663 -2.27477,1.4267 -7.73422,4.993 -7.73422,4.993 l -12.73873,2.8532 c 0,0 -5.45945,-0.7133 -8.64414,0 -3.18467,0.7133 -12.73872,0.7133 -12.73872,0.7133 l -9.09908,0 -6.82431,0 c -1.81982,0 -7.73423,0.7133 -7.73423,0.7133 0,0 -5.45945,1.4265 -7.73422,1.4265 -2.27477,0 -10.46396,0.7134 -12.73873,0.7134 l -7.73422,0 -6.36936,0 c -2.72972,0 -15.0135,-1.4267 -15.0135,-1.4267 l -5.00449,0 -5.91441,0 c 0,0 -6.82431,0 -10.9189,0.7133 -4.09459,0.7134 -4.54954,0.7134 -6.36937,0.7134 -1.81981,0 -8.644132,1.4265 -11.8288,1.4265 l -12.738723,0 c 0,0 -6.824321,-0.7133 -10.918909,-0.7133 -4.094588,0 -9.554038,-0.7132 -9.554038,-0.7132 l -14.103586,-2.1399 c 0,0 -4.549547,0 -7.279273,-0.7133 -2.729733,-0.7133 -8.644126,-0.7133 -11.37386,-2.1398 -2.729725,-1.4267 -10.463958,-4.993 -10.463958,-4.993 l -1.819805,-6.4197 -0.45496,-9.9859 0,-8.5594 c 0,-2.8532 2.502245,-5.3496 2.502245,-5.3496 l 2.957205,-3.2098 z"
       id="path4161"
       inkscape:connector-curvature="0"
       sodipodi:nodetypes="cscsccsccccscssscssssssssscccccccsccsccscsscscccssscsccsscccsccc" />
  </g>
  <g
     inkscape:groupmode="layer"
     id="layer2"
     inkscape:label="Jamburguesa"
     style="display:inline"
     transform="translate(0,-861.02376)">
    <path
       style="display:inline;fill:#784421;fill-rule:evenodd;stroke:#000000;stroke-width:2.41777563;stroke-linecap:butt;stroke-linejoin:miter;stroke-miterlimit:4;stroke-dasharray:none;stroke-opacity:1"
       d="m 28.584929,961.16677 16.895011,2.28252 c 5.253437,-0.0498 9.220678,-1.10782 18.862546,2.2825 5.346568,-1.6605 9.512565,-4.24646 17.735708,-3.65199 5.508343,-1.51129 11.11968,-2.21515 17.394569,2.2825 11.590137,-1.90437 12.786847,-0.84603 16.329807,-0.45651 5.21585,1.31496 12.76107,2.18584 17.97692,-1.29119 9.08992,-1.69505 10.12303,0.0549 10.84753,1.93679 9.982,1.64387 6.59182,0.24806 9.88266,0 l 13.17688,-1.3695 14.34157,0.22825 7.43698,2.01509 9.9783,2.2825 11.47981,-2.51076 14.26663,-0.91301 10.02824,-1.33034 8.64734,3.69118 6.22663,4.40838 2.95309,4.89733 1.11472,7.32303 -0.82355,11.62065 c -0.0443,3.87355 -1.29811,7.74711 -5.21182,11.62061 l -10.43572,1.9368 -14.00046,0.6457 -8.64732,0.6455 -10.29445,0 -13.58866,0 -11.94155,-0.6455 -7.00023,0 -8.64732,-1.9369 -10.29445,0 -8.64732,1.2912 -14.00045,2.5824 -6.17666,0 -10.70623,-1.2912 -10.70621,-1.9368 -10.294445,-0.6456 c -3.65744,-2.8341 -6.880395,-0.2186 -10.294439,0 -4.255039,2.5503 -8.510069,0.8709 -12.765108,1.1298 l -6.794342,-1.4525 -9.367928,-0.3229 -9.162059,-0.9684 -6.382563,1.2913 -8.956157,-0.9684 -6.279611,-1.2912 -7.823778,-6.45594 -4.117779,-7.10152 -0.411771,-9.84528 0.617665,-10.32946 3.500114,-6.29451 4.941338,-1.45259 z"
       id="path4234"
       inkscape:connector-curvature="0"
       sodipodi:nodetypes="cccccccccccccccccccccccccccccccccccccccccccccccccccc" />
  </g>
  <g
     inkscape:groupmode="layer"
     id="layer4"
     inkscape:label="qeso"
     transform="translate(0,-861.02376)">
    <path
       style="fill:#ffd42a;fill-rule:evenodd;stroke:#000000;stroke-width:2.41777563;stroke-linecap:butt;stroke-linejoin:miter;stroke-miterlimit:4;stroke-dasharray:none;stroke-opacity:1"
       d="m 14.161321,989.20434 1.286818,-12.6092 c 6.755713,-9.12451 13.511452,-7.36494 20.267173,-9.07864 l 46.968396,-0.50437 -41.177772,16.64416 z"
       id="path4141"
       inkscape:connector-curvature="0"
       sodipodi:nodetypes="cccccc" />
    <path
       style="fill:#ffd42a;fill-rule:evenodd;stroke:#000000;stroke-width:2.32531762;stroke-linecap:butt;stroke-linejoin:miter;stroke-miterlimit:4;stroke-dasharray:none;stroke-opacity:1"
       d="m 203.87969,982.42642 29.64339,4.31972 c 20.98085,6.17751 8.87639,-0.8911 7.32994,-3.73268 l -9.65486,-11.95444 -36.51942,-20.7132 -8.6779,8.80199 -2.45262,11.27481 8.94084,8.08075 z"
       id="path4141-0"
       inkscape:connector-curvature="0"
       sodipodi:nodetypes="ccccccccc" />
    <path
       style="fill:#ffd42a;fill-rule:evenodd;stroke:#000000;stroke-width:2.32531762;stroke-linecap:butt;stroke-linejoin:miter;stroke-miterlimit:4;stroke-dasharray:none;stroke-opacity:1"
       d="m 64.944414,972.59604 17.371865,11.0961 12.546346,1.00875 14.154855,0 18.65868,-2.01749 12.86806,0 14.79825,1.5131 17.37188,-2.52183 11.25954,-9.07863 -45.03818,-3.53059 -54.045811,-1.00874 -14.154861,1.51312 z"
       id="path4158"
       inkscape:connector-curvature="0"
       sodipodi:nodetypes="ccccccccccccc" />
  </g>
  <g
     inkscape:label="Capa 1"
     inkscape:groupmode="layer"
     id="layer1"
     style="display:inline"
     transform="translate(0,-861.02376)">
    <path
       style="fill:#aa8800;fill-rule:evenodd;stroke:#000000;stroke-width:2.32346845;stroke-linecap:butt;stroke-linejoin:miter;stroke-miterlimit:4;stroke-dasharray:none;stroke-opacity:1"
       d="m 24.120905,948.7535 220.323325,-0.83821 c 0.53413,-5.93731 0.62591,-6.16382 -1.28673,-13.89234 -0.87436,-5.9429 -3.65562,-13.01414 -5.57683,-15.71771 -3.9916,-9.18282 -6.86748,-12.1813 -10.14739,-14.6412 -6.24001,-11.99466 -15.53324,-14.31771 -22.98052,-17.76091 -7.32831,-7.6334 -16.52445,-10.67755 -24.80952,-11.29344 -10.34459,-5.18244 -18.81784,-4.97322 -28.81533,-6.93382 -9.51566,-2.16938 -20.20503,-3.34518 -30.06097,-1.9045 -10.08663,-0.55958 -20.01462,-1.89534 -31.10447,2.45509 -9.152591,1.46375 -14.965749,4.58805 -21.476904,7.36527 -8.427304,2.73731 -16.597207,5.81595 -22.958056,11.29343 -6.27412,4.41918 -9.719953,8.83834 -14.07107,13.2575 -3.677309,4.81239 -6.560945,9.9756 -8.146396,15.71262 -2.772428,5.07384 -4.48421,10.14769 -4.813796,15.22155 l -1.413772,10.65861 2.663285,4.76126 z"
       id="path4232"
       inkscape:connector-curvature="0"
       sodipodi:nodetypes="cccccccccccccccccc" />
    <ellipse
       style="fill:#ffeeaa;fill-opacity:1;stroke:#000000;stroke-width:0.7424854;stroke-miterlimit:4;stroke-dasharray:none;stroke-dashoffset:0;stroke-opacity:1"
       id="path4614"
       cx="504.90259"
       cy="700.63861"
       rx="6.8279204"
       ry="2.1559837"
       transform="matrix(0.87357215,0.48669467,-0.37560221,0.92678098,0,0)" />
    <ellipse
       style="fill:#ffeeaa;fill-opacity:1;stroke:#000000;stroke-width:0.74381125;stroke-miterlimit:4;stroke-dasharray:none;stroke-dashoffset:0;stroke-opacity:1"
       id="path4616"
       cx="-596.07092"
       cy="-613.43335"
       rx="3.7508023"
       ry="1.8462933"
       transform="matrix(-0.77140883,-0.63633986,0.51453625,-0.85746863,0,0)" />
    <ellipse
       style="fill:#ffeeaa;fill-opacity:1;stroke:#000000;stroke-width:0.7440151;stroke-miterlimit:4;stroke-dasharray:none;stroke-dashoffset:0;stroke-opacity:1"
       id="path4624"
       cx="669.086"
       cy="564.1524"
       rx="2.7672408"
       ry="2.0985014"
       transform="matrix(0.74559177,0.66640297,-0.5450904,0.83837727,0,0)" />
    <ellipse
       style="fill:#ffeeaa;fill-opacity:1;stroke:#000000;stroke-width:0.7423749;stroke-miterlimit:4;stroke-dasharray:none;stroke-dashoffset:0;stroke-opacity:1"
       id="path4629"
       cx="-276.17264"
       cy="823.63849"
       rx="3.4084303"
       ry="1.6191291"
       transform="matrix(0.87992793,-0.47510719,0.36558168,0.93077926,0,0)" />
    <ellipse
       style="fill:#ffeeaa;fill-opacity:1;stroke:#000000;stroke-width:0.74158627;stroke-miterlimit:4;stroke-dasharray:none;stroke-dashoffset:0;stroke-opacity:1"
       id="path4631"
       cx="-155.15216"
       cy="861.42371"
       rx="5.29986"
       ry="1.3606977"
       transform="matrix(0.9207284,-0.39020406,0.29460387,0.95561946,0,0)" />
    <ellipse
       style="fill:#ffeeaa;fill-opacity:1;stroke:#000000;stroke-width:0.74386412;stroke-miterlimit:4;stroke-dasharray:none;stroke-dashoffset:0;stroke-opacity:1"
       id="path4633"
       cx="-409.04922"
       cy="758.14996"
       rx="4.5074458"
       ry="2.1073141"
       transform="matrix(0.76530338,-0.64366974,0.52188935,0.85301319,0,0)" />
    <ellipse
       style="fill:#ffeeaa;fill-opacity:1;stroke:#000000;stroke-width:0.74273664;stroke-miterlimit:4;stroke-dasharray:none;stroke-dashoffset:0;stroke-opacity:1"
       id="path4635"
       cx="-322.95117"
       cy="825.49634"
       rx="5.3855224"
       ry="2.1491396"
       transform="matrix(0.85834812,-0.51306774,0.39875106,0.91705921,0,0)" />
    <ellipse
       style="fill:#ffeeaa;fill-opacity:1;stroke:#000000;stroke-width:0.74271429;stroke-miterlimit:4;stroke-dasharray:none;stroke-dashoffset:0;stroke-opacity:1"
       id="path4637"
       cx="424.26392"
       cy="729.01373"
       rx="3.4259391"
       ry="2.1497703"
       transform="matrix(0.8597503,0.51071463,-0.39666553,0.91796321,0,0)" />
    <ellipse
       style="fill:#ffeeaa;fill-opacity:1;stroke:#000000;stroke-width:0.74172407;stroke-miterlimit:4;stroke-dasharray:none;stroke-dashoffset:0;stroke-opacity:1"
       id="path4649"
       cx="486.33267"
       cy="756.82642"
       rx="3.1371806"
       ry="1.9023775"
       transform="matrix(0.91408135,0.40553087,-0.30712701,0.95166854,0,0)" />
    <ellipse
       style="fill:#ffeeaa;fill-opacity:1;stroke:#000000;stroke-width:0.74383682;stroke-miterlimit:4;stroke-dasharray:none;stroke-dashoffset:0;stroke-opacity:1"
       id="path4651"
       cx="-382.32349"
       cy="778.54413"
       rx="7.5067596"
       ry="1.5815591"
       transform="matrix(0.76849875,-0.63985129,0.51805127,0.85534957,0,0)" />
    <ellipse
       style="fill:#ffeeaa;fill-opacity:1;stroke:#000000;stroke-width:0.74296045;stroke-miterlimit:4;stroke-dasharray:none;stroke-dashoffset:0;stroke-opacity:1"
       id="path4653"
       cx="709.41577"
       cy="-457.25824"
       rx="5.3563724"
       ry="1.2284874"
       transform="matrix(-0.42003072,0.90750989,-0.84370006,-0.53681488,0,0)" />
    <ellipse
       style="fill:#ffeeaa;fill-opacity:1;stroke:#000000;stroke-width:0.74420208;stroke-miterlimit:4;stroke-dasharray:none;stroke-dashoffset:0;stroke-opacity:1"
       id="path4655"
       cx="638.05176"
       cy="536.383"
       rx="3.8020258"
       ry="1.3023809"
       transform="matrix(0.71254263,0.70162882,-0.58231741,0.81296152,0,0)" />
    <ellipse
       style="fill:#ffeeaa;fill-opacity:1;stroke:#000000;stroke-width:0.74367082;stroke-miterlimit:4;stroke-dasharray:none;stroke-dashoffset:0;stroke-opacity:1"
       id="path4659"
       cx="554.10352"
       cy="614.32288"
       rx="1.4950449"
       ry="2.6458704"
       transform="matrix(0.78622416,0.61794139,-0.4963389,0.86812885,0,0)" />
    <ellipse
       style="fill:#ffeeaa;fill-opacity:1;stroke:#000000;stroke-width:0.74156028;stroke-miterlimit:4;stroke-dasharray:none;stroke-dashoffset:0;stroke-opacity:1"
       id="path4661"
       cx="876.59711"
       cy="105.09466"
       rx="4.0831256"
       ry="1.204125"
       transform="matrix(0.29223041,0.95634794,-0.92196079,0.38728324,0,0)" />
    <ellipse
       style="fill:#ffeeaa;fill-opacity:1;stroke:#000000;stroke-width:0.74109381;stroke-miterlimit:4;stroke-dasharray:none;stroke-dashoffset:0;stroke-opacity:1"
       id="path4663"
       cx="127.4059"
       cy="-860.59692"
       rx="4.3106732"
       ry="1.366954"
       transform="matrix(-0.94318272,0.33227451,-0.24824606,-0.96869701,0,0)" />
    <ellipse
       style="display:inline;fill:#ffeeaa;fill-opacity:1;stroke:#000000;stroke-width:0.74110669;stroke-miterlimit:4;stroke-dasharray:none;stroke-dashoffset:0;stroke-opacity:1"
       id="path4653-0"
       cx="920.00781"
       cy="31.510088"
       rx="5.4671898"
       ry="1.1975877"
       transform="matrix(0.24950181,0.96837433,-0.94262008,0.33386731,0,0)" />
  </g>
  <g
     inkscape:groupmode="layer"
     id="layer3"
     inkscape:label="lghuiga"
     style="display:inline"
     transform="translate(0,-861.02376)">
    <path
       style="display:inline;fill:#44aa00;fill-rule:evenodd;stroke:#000000;stroke-width:2.54629207;stroke-linecap:butt;stroke-linejoin:miter;stroke-miterlimit:4;stroke-dasharray:none;stroke-opacity:1"
       d="m 21.390864,946.56385 -5.978425,-11.892 c 0,0 -1.345138,-7.76621 -4.63327,-4.85388 -3.2881485,2.91235 -2.0924635,6.31005 -2.8397549,8.00889 -0.7473084,1.69886 -1.9429934,2.66964 -1.7935317,4.85391 0.1494616,2.18423 0.7473255,9.70776 1.1956849,10.92121 0.4483851,1.21349 -0.1494616,6.79544 2.0924552,7.5235 2.2419165,0.72812 3.7365085,2.66966 5.5300395,5.09659 1.793524,2.42696 4.184885,6.06737 4.63327,6.79542 0.448377,0.72809 1.046232,2.66966 5.380587,0.9708 4.334355,-1.69885 7.622486,-3.15504 9.416027,-3.15504 1.793523,0 5.081646,1.94157 6.277339,2.91233 1.195685,0.97079 8.316736,1.8575 12.121383,1.17107 3.804638,-0.68642 8.454764,-4.11863 12.682154,-4.8051 4.227382,-0.68644 8.03202,2.05933 10.568472,2.74576 2.536425,0.68646 5.072843,4.11866 12.682145,4.11866 7.609286,0 9.300234,0.68644 13.527621,0 4.22738,-0.68642 2.95916,0 13.10489,-1.37289 10.14572,-1.37285 10.56845,-0.68643 14.79585,-3.4322 4.22739,-2.74577 5.49559,-3.43221 10.56845,-4.11867 5.07287,-0.68644 6.76381,-0.68644 10.99121,2.74581 4.22739,3.43221 6.76381,6.86439 12.25941,6.86439 5.49559,0 8.45477,-2.05933 13.95035,-4.11864 5.49561,-2.05933 6.34109,-2.74575 11.83668,-4.11866 5.4956,-1.3729 5.91835,-2.05934 9.72299,-2.74576 3.80465,-0.68643 5.49559,-1.37291 8.03203,0.68642 2.53644,2.05934 2.53644,4.80511 7.60929,6.86446 5.07287,2.05932 11.41393,2.74574 13.52764,2.05932 2.11368,-0.68647 4.65013,-4.80511 9.30024,-7.55088 4.65012,-2.74575 11.83668,-4.80511 14.37311,-5.49152 2.53642,-0.68647 5.07285,-0.68647 7.18654,-3.43225 2.11371,-2.74576 3.80465,-13.72884 3.80465,-13.72884 0,0 2.95916,-8.92373 1.26822,-13.04239 -1.69095,-4.11865 -3.38192,-5.49154 -6.7638,-4.80508 -3.38192,0.68643 -5.07289,1.37286 -6.34109,5.49153 -1.26822,4.11863 -5.49561,9.61018 -7.6093,10.29663 -2.11369,0.68645 -0.84547,2.74577 -6.7638,1.37288 -5.91836,-1.37288 -11.83669,-2.74577 -13.95038,-2.74577 -2.1137,0 -6.76381,-2.74576 -6.76381,-2.74576 0,0 -7.60928,-2.05935 -12.68216,-0.68646 -5.07286,1.37289 -7.18654,1.37289 -11.83667,3.43222 -4.65012,2.05934 -10.14573,2.74577 -13.52762,3.4322 -3.38191,0.68646 -5.07285,1.37288 -9.72298,0.68646 -4.65013,-0.68646 -9.30025,-3.43222 -11.83669,-4.11866 -2.53643,-0.68645 -13.52762,-0.68645 -16.48678,-0.68645 -2.95918,0 -12.25942,-0.68641 -16.4868,0.68645 -4.22739,1.37289 -13.10491,2.74577 -16.90955,2.74577 -3.80464,0 -14.373102,1.37289 -14.373102,1.37289 0,0 -7.186551,0 -8.877516,-0.68646 -1.690947,-0.68643 -5.495603,-4.11865 -5.495603,-4.11865 0,0 -11.413924,-0.68641 -17.755005,-0.68641 -6.341065,0 -12.682146,1.37286 -16.486793,2.74575 -3.804647,1.37288 -8.032029,3.43219 -10.568455,4.11866 -2.536443,0.68643 -11.955842,-1.58156 -11.955842,-1.58156 z"
       id="path4214"
       inkscape:connector-curvature="0" />
  </g>
</svg>
